<?xml version="1.0" encoding="UTF-8"?>
<!DOCTYPE svg PUBLIC "-//W3C//DTD SVG 1.1//EN" "http://www.w3.org/Graphics/SVG/1.1/DTD/svg11.dtd">
<!-- Creator: CorelDRAW 2020 (64-Bit) -->
<svg xmlns="http://www.w3.org/2000/svg" xml:space="preserve" width="185.062mm" height="69.4998mm" version="1.1" style="shape-rendering:geometricPrecision; text-rendering:geometricPrecision; image-rendering:optimizeQuality; fill-rule:evenodd; clip-rule:evenodd"
viewBox="0 0 17672.14 6636.76"
 xmlns:xlink="http://www.w3.org/1999/xlink"
 xmlns:xodm="http://www.corel.com/coreldraw/odm/2003">
 <defs>
  <style type="text/css">
   <![CDATA[
    .fil8 {fill:#FEFEFE;fill-rule:nonzero}
    .fil11 {fill:#FFE9C6;fill-rule:nonzero}
    .fil7 {fill:#FAA83C;fill-rule:nonzero}
    .fil4 {fill:#45586E;fill-rule:nonzero}
    .fil9 {fill:#990000;fill-rule:nonzero}
    .fil3 {fill:#990000;fill-rule:nonzero}
    .fil10 {fill:#99CC33;fill-rule:nonzero}
    .fil6 {fill:#CC3300;fill-rule:nonzero}
    .fil5 {fill:#CC3300;fill-rule:nonzero}
    .fil0 {fill:#FF6600;fill-rule:nonzero}
    .fil2 {fill:#FF6600;fill-rule:nonzero}
    .fil1 {fill:white;fill-rule:nonzero}
   ]]>
  </style>
 </defs>
 <g id="Capa_x0020_1">
  <metadata id="CorelCorpID_0Corel-Layer"/>
  <g id="_1648999377984">
   <path class="fil0" d="M5043.48 5182.83l-576.89 -1570.38 33.22 270.98c-305.25,300.95 -1605.76,898.87 -2554.7,800.95l622.08 665.12 -205.81 723.2c696.96,125.99 2010.77,-227.53 2682.1,-889.87z"/>
   <path class="fil1" d="M3211.78 5357.25c4.58,11.13 12.19,14.5 22.62,10.08 10.95,-4.77 14.31,-12.55 9.55,-23.69 -4.41,-10.43 -12.18,-13.26 -23.16,-8.67 -10.43,4.42 -13.43,11.83 -9.01,22.28zm27.91 -386.94c-2.83,-2.65 -6.89,-4.25 -12.38,-4.59 -5.48,-0.36 -13.61,2.45 -24.05,8.47 -10.25,6.53 -21.74,16.42 -34.65,29.51 -12.91,13.07 -22.29,28.27 -28.12,45.24 -6.55,17.32 -9.39,35 -8.69,53.2 0.7,18.04 2.99,36.07 6.52,53.57 3.52,17.68 8.12,34.29 13.42,49.68 5.29,15.38 10.42,29.7 15.36,42.95 5.65,13.8 11.48,25.64 17.31,35.9 5.83,10.07 11.31,16.44 16.07,19.1 4.77,1.77 8.49,-0.35 11.14,-6.54 2.83,-6.01 3.53,-16.08 2.31,-30.22 -1.59,-14.67 -4.77,-31.64 -9.53,-51.26 -4.76,-19.44 -8.64,-37.83 -11.29,-54.99 -1.59,-18.55 -1.75,-35 -0.51,-49.32 1.06,-14.3 4.25,-28.27 9.21,-41.88 5.3,-12.9 11.15,-25.8 17.33,-38.35 6.2,-12.55 11.33,-22.8 15.75,-30.75 4.6,-9.01 7.26,-15.38 7.79,-19.44 0.71,-4.07 -0.35,-7.6 -3,-10.26zm261 177.23l-32.67 -77.44 -116.68 49.26 32.68 77.45 116.67 -49.27zm-382.73 70.55c-13.42,-32 -19.95,-64.88 -19.76,-98.82 0.37,-33.77 6.4,-65.58 18.43,-95.27 12.2,-29.69 29.72,-56.56 52.88,-80.93 22.99,-24.39 50.92,-43.47 83.46,-57.24l116.32 -48.92c31.83,-13.6 64.89,-20.12 98.64,-19.94 33.95,0.37 65.76,6.57 95.45,18.6 29.53,12.03 56.55,29.9 81.12,53.25 24.56,23.51 43.46,51.09 56.88,83.1l32.68 77.26 98.53 233.54c6.89,16.45 10.25,32.89 9.89,49.5 -0.18,16.62 -3.38,32.34 -9.4,47.2 -6.01,14.66 -14.86,28.27 -26.53,40.46 -11.85,12.37 -25.46,21.73 -41.01,28.27 -16.27,6.89 -32.72,10.24 -49.32,9.87 -16.63,-0.18 -32.52,-3.36 -47.74,-9.21 -15.01,-5.84 -28.62,-14.51 -40.81,-26 -12.01,-11.33 -21.55,-25.11 -28.45,-41.38l-49.44 -117.22 -116.69 49.27 49.45 117.21c6.89,16.27 10.24,32.71 9.88,49.32 -0.18,16.63 -3.55,32.35 -9.91,47.2 -6.38,15.02 -15.22,28.45 -26.54,40.64 -11.5,12.02 -25.29,21.56 -41.56,28.45 -15.56,6.53 -31.82,9.7 -48.79,9.7 -16.97,-0.19 -32.88,-3.37 -47.55,-9.39 -14.85,-6.03 -28.28,-14.7 -40.47,-26.18 -12.01,-11.33 -21.55,-25.11 -28.45,-41.55l-98.53 -233.56 -32.68 -77.25z"/>
   <path id="1" class="fil1" d="M3829.94 5007.68c4.24,9.72 11.13,12.56 20.86,8.32 9.9,-4.06 12.56,-10.95 8.49,-20.68 -4.06,-9.89 -10.95,-12.73 -20.86,-8.49 -9.72,4.06 -12.55,10.95 -8.49,20.86zm-114.99 -180.87c-6.89,-16.44 -10.25,-32.89 -9.88,-49.5 0.17,-16.62 3.37,-32.34 9.39,-47.19 6.01,-14.67 14.86,-28.28 26.53,-40.47 11.85,-12.37 25.46,-21.73 41.02,-28.27 16.26,-6.89 32.71,-10.24 49.32,-9.87 16.62,0.18 32.52,3.36 47.73,9.21 15.01,6.02 28.8,14.69 40.81,26 12.01,11.5 21.55,25.29 28.44,41.55l49.1 116.51 33.02 78.15 49.09 116.5 116.33 -49.09 38.02 -16.07c16.44,-6.89 32.88,-10.24 49.49,-9.87 16.63,0.18 32.35,3.37 47.55,9.21 15.2,5.84 28.81,14.51 40.82,26 12.19,11.33 21.55,25.11 28.44,41.38 6.89,16.26 10.25,32.7 9.89,49.32 -0.19,16.62 -3.56,32.52 -9.75,47.9 -6.19,15.2 -15.04,28.98 -26.35,41 -11.5,12.19 -25.29,21.56 -41.56,28.45l-38.02 16.06 -78.14 33.03 -38.19 16.06 -39.08 16.42 -78.14 33.03c-15.56,6.53 -31.83,9.71 -48.79,9.7 -16.97,-0.19 -32.88,-3.55 -47.9,-9.75 -14.85,-6.37 -28.46,-15.39 -40.47,-26.7 -12.19,-11.5 -21.56,-25.29 -28.45,-41.56l-81.76 -193.58 -16.42 -39.08 -82.11 -194.47zm93.13 19.66c-3,-16.27 -4.57,-31.83 -4.57,-46.32 0.01,-14.5 1.25,-27.04 3.72,-37.29 3.02,-11.33 6.55,-20.15 10.62,-26.87 4.08,-6.71 5.84,-12.37 5.48,-16.79 -0.87,-5.66 -4.4,-9.54 -10.6,-11.67 -6.18,-1.96 -13.78,-0.71 -22.62,3.88 -7.78,3.18 -15.91,9.54 -24.23,18.9 -8.31,9.2 -14.32,19.62 -17.86,31.11 -3.9,10.78 -4.43,22.27 -1.61,34.64 2.84,12.19 7.24,27.05 13.06,44.55 3.53,8.49 7.6,17.68 11.83,27.76 4.24,10.07 8.48,19.81 12.72,29.16 4.41,9.2 8.65,18.04 12.89,26.17 4.24,8.31 8.3,15.03 12.01,20.34 7.95,9.71 13.61,13.24 17.14,10.61 3.53,-2.65 4.78,-9.55 3.9,-20.68 -0.53,-10.43 -3.52,-23.69 -9,-39.43 -5.47,-15.55 -9.89,-31.64 -12.89,-48.07z"/>
   <path class="fil2" d="M6445.27 3628.31l-122.76 -352.41 -526.27 183.37 122.77 352.42 526.26 -183.38zm-1231.05 789.11c-32.9,11.52 -49.39,26.26 -49.51,45.01 -0.12,17.97 3.65,39.09 12.1,62.6 9.2,26.62 20.01,47.79 32.41,63.49 11.61,15.71 34.26,17.41 66.38,5.89 29.76,-9.96 44.7,-25.5 46.39,-45.02 0.92,-20.31 -2.85,-43.78 -12.05,-70.41 -8.45,-23.49 -19.26,-42.32 -32.46,-56.46 -12.41,-13.37 -34.28,-15.08 -63.25,-5.11zm-660.12 -1119.27c-26.1,-74.4 -35.78,-147.9 -29.85,-220.53 5.95,-73.42 24.35,-142.07 56.81,-206.7 32.45,-63.88 75.01,-121.42 128.46,-171.08 54.25,-50.45 117.78,-88.33 191.4,-114.42l1406.51 -490.29c97.11,-33.76 194.86,-47.19 293.28,-40.31 98.41,6.89 190.45,30.92 276.14,72.88 85.7,41.18 161.9,97.93 228.63,171.02 66.73,73.1 116.98,157.81 150.74,254.92l121.99 350.06 62.15 177.78c33.77,97.11 47.2,194.86 40.33,293.28 -6.89,99.19 -30.93,191.23 -72.11,276.92 -41.18,84.91 -97.93,161.13 -171.02,227.86 -72.32,66.73 -157.82,117.75 -254.92,151.51l-176.99 61.37 -703.27 245.53 62.17 177 122 349.27c25.31,73.63 34.99,147.14 29.05,220.55 -5.16,73.41 -23.57,142.06 -53.68,207.5 -30.11,64.67 -71.9,123 -126.14,172.66 -53.45,50.44 -116.99,88.33 -190.6,113.64 -73.62,26.1 -147.13,35.78 -220.54,29.84 -73.42,-5.94 -142.83,-24.36 -208.27,-56.03 -65.43,-31.68 -123.75,-75.03 -173.42,-128.49 -50.45,-53.46 -88.33,-116.99 -114.42,-191.39l-305.37 -876.33 -62.16 -176.99 -306.9 -881.03zm272.83 222.89c18.4,53.25 38.36,110.41 59.07,170.71 21.49,60.3 42.99,119.05 64.51,176.23 21.51,57.17 42.27,110.44 63.82,161.37 20.77,50.92 40.04,90.89 57.05,121.48 38.66,62.76 65.06,87.93 80.77,76.31 15.71,-12.4 20.64,-50.66 14.79,-114.76 -8.96,-63.36 -25.65,-141.6 -52.4,-234.76 -25.96,-93.93 -48.81,-187.84 -68.51,-284.07 -16.6,-93.1 -25.4,-181.45 -28,-263.51 -1.81,-82.05 3.32,-153.12 15.43,-213.22 11.33,-60.87 26.48,-108.44 44.67,-142.7 17.41,-34.27 24.64,-65.49 21.7,-94.41 -6.85,-27.39 -23.89,-50.16 -51.91,-69.1 -28.01,-18.15 -62.38,-19.93 -103.89,-5.35 -36.07,19.3 -72.21,51.11 -107.67,96.98 -35.45,45.08 -60.02,98.85 -75.26,160.49 -15.24,61.62 -15.66,126.47 -1.26,196.11 14.4,69.63 36.5,157.29 67.08,262.2z"/>
   <path id="1" class="fil2" d="M8286.78 3479.97c7.12,52.33 36.08,74.93 85.29,67.81 52.33,-7.12 74.93,-37.64 67.81,-89.98 -7.13,-49.22 -37.63,-70.24 -89.98,-63.12 -49.21,7.12 -70.24,36.07 -63.12,85.29zm551.72 -1623.94c-8.62,-14.83 -24.26,-25.74 -47.72,-33.51 -22.68,-7.78 -60.18,-4.57 -111.73,9.59 -51.54,16.5 -112.42,45.52 -181.9,87.84 -69.46,41.54 -126.39,95.57 -170.82,161.28 -47.54,67.29 -79.43,140.02 -96.47,218.19 -17.06,78.16 -27.84,157.11 -32.38,236.81 -3.75,78.93 -3.62,154.72 2,226.59 5.6,71.88 11.19,139.08 17.56,201.57 9.49,64.84 20.54,122.63 33.93,172.62 14.15,49.98 29.84,83.55 47.84,99.91 18,13.25 35.95,7.75 54.67,-14.94 18.71,-23.47 33.48,-65.7 43.52,-127.45 9.25,-64.87 14.58,-141.45 15.99,-229.75 1.38,-88.3 6.7,-171.13 14.37,-248.5 13.14,-80.51 30.97,-150.87 51.96,-211.07 21.77,-60.21 50.57,-116.52 87.19,-168.94 37.42,-49.29 75.61,-97.81 116.16,-144.77 41.32,-46.97 74.85,-84.53 102.14,-114.28 30.41,-32.1 49.12,-57.12 56.12,-74.34 7,-16.42 6.19,-32.05 -2.44,-46.87zm915.39 1049.22l-52.24 -360.9 -548.37 79.17 52.24 360.89 548.37 -79.16zm-1711.42 -123.38c-22.17,-151.54 -13.07,-300.02 25.73,-443.86 38.8,-144.63 101.07,-273.66 186.03,-387.13 84.17,-113.46 189.48,-208.98 315.91,-287.35 125.65,-77.6 266.21,-127.87 420.87,-150.04l552.29 -79.95c151.55,-22.16 300.02,-13.06 444.65,25.74 144.62,39.57 272.88,101.06 386.35,186.02 113.46,84.18 208.98,190.26 287.36,318.26 78.38,127.23 128.64,266.98 150.81,418.54l52.25 366.35 159.9 1108.48c11.87,77.33 7.31,151.57 -12.86,222.71 -19.39,70.36 -50.54,133.7 -93.41,190.82 -42.08,56.34 -95.13,104.11 -159.12,143.29 -64,39.19 -133.5,64.32 -207.71,75.41 -77.33,11.08 -151.58,6.53 -222.71,-12.87 -70.37,-20.19 -135.28,-51.32 -193.17,-93.4 -58.68,-42.08 -107.23,-94.35 -146.41,-156.78 -39.18,-62.43 -64.31,-132.72 -75.4,-210.05l-79.97 -557.75 -548.38 79.16 79.97 557.75c11.09,77.34 7.31,151.57 -12.86,222.72 -19.4,71.14 -51.32,134.48 -95.75,191.61 -43.65,57.12 -96.7,104.89 -159.12,144.07 -62.44,39.18 -132.73,64.31 -210.06,75.4 -74.21,10.3 -147.67,6.53 -220.37,-13.65 -71.93,-19.4 -136.83,-49.75 -193.17,-92.63 -57.11,-42.07 -104.88,-94.34 -144.06,-156.78 -39.18,-62.43 -63.54,-131.93 -75.41,-209.26l-159.9 -1108.46 -52.25 -366.37z"/>
   <path id="2" class="fil2" d="M11779.64 2438.57c-0.2,-40.63 -19.82,-60.85 -60.47,-61.44 -40.63,0.19 -60.85,19.82 -61.44,60.46 -0.58,40.63 19.83,60.86 60.46,61.45 40.64,0.57 60.86,-19.83 61.45,-60.47zm-303.22 -173.58c1.66,-140.65 29.16,-272.06 83.28,-394.22 54.89,-122.94 129.38,-230.34 223.48,-323.77 94.89,-92.66 204.72,-164.3 330.27,-216.46 125.54,-52.18 259.04,-77.03 399.7,-76.14l1025.22 9.94 182.84 1.47c78.15,0.41 150.9,16.46 217.45,46.62 66.57,30.17 125.36,70.51 174.83,121.07 49.48,50.54 88.82,109.75 117.28,176.81 29.23,67.84 43.65,140.44 43.24,218.57 -1.21,75.02 -16.48,146.98 -46.64,215.11 -30.15,68.91 -71.28,127.7 -121.05,177.17 -50.55,49.47 -109.75,88.82 -176.81,118.05 -67.84,29.24 -140.44,42.87 -218.58,42.47l-557.15 -5.16 -561.83 -5.13 -3.7 370.39 561.83 5.14 257.87 2.66 18.75 -0.09c115.65,1 223.59,23.94 324.61,68.77 101,44.82 189.59,105.35 265.76,183.13 75.37,77 135.19,166.57 177.88,268.72 42.68,101.39 63.51,210.68 62.5,326.32 -1,115.65 -23.92,223.59 -68.76,325.39 -44.83,101 -105.36,189.58 -182.35,265.75 -77.78,75.38 -167.34,135.2 -268.72,177.88 -102.16,42.69 -210.67,63.51 -326.32,62.5l-1396.38 -12.86 -93.77 -1.11c-165.65,-1.55 -283.82,-38.49 -355.27,-110.81 -71.46,-72.34 -106.41,-193.28 -104.87,-362.07 1.55,-165.65 38.48,-283.82 111.6,-355.27 72.32,-71.45 190.93,-106.4 356.58,-104.84l1213.53 11.38 1.45 -187.54 -561.83 -5.12 -89.08 -1.14c-140.65,-0.9 -272.84,-29.17 -397.34,-83.27 -124.49,-54.11 -233.46,-127.82 -326.12,-222.7 -92.65,-94.11 -165.07,-203.94 -217.24,-329.48 -52.17,-124.77 -77.02,-257.49 -76.13,-398.14zm375.51 -558.92c-44.32,46.31 -78.47,94.93 -102.45,144.27 -23.98,50.11 -39.36,100.98 -45.37,154.15 -6.77,53.16 -5.77,101.6 3.05,145.32 8.8,43.72 18.32,70.24 26.95,79.56 15.69,13.21 29.72,6.89 42.89,-18.17 12.39,-25.07 30.19,-58.75 52.65,-102.62 21.68,-43.07 48.01,-90.08 78.25,-139.45 30.24,-50.16 70.66,-96.45 120.45,-139.67 50.58,-43.22 105.11,-79.42 162.8,-108.6 57.68,-29.18 96.61,-57.51 115.23,-85.71 19.39,-27.45 14.59,-52.43 -12.86,-74.96 -28.24,-21.74 -67.34,-30.15 -117.32,-24.44 -49.98,5.71 -105.37,24.73 -166.17,57.05 -61.56,32.33 -114.53,70.09 -158.07,113.27z"/>
   <path id="3" class="fil2" d="M16349.08 3790.31l121.84 -741.53 60.15 -366.08 -553.79 -90.99 -60.17 366.06 -121.83 741.53 553.8 91.01zm-1457.44 -633.73c-9.04,52.41 13.03,82.74 65.44,91 49.28,8.29 78.83,-13.79 87.09,-66.2 8.26,-52.41 -11.47,-82.75 -60.74,-90.24 -52.42,-9.04 -83.53,13.03 -91.79,65.44zm1020.2 -1384.91c-3.23,-16.39 -15.05,-31.93 -34.67,-45.88 -19.63,-14.71 -56.41,-23.07 -110.34,-25.85 -53.91,1.13 -120.25,11.71 -199.83,31.75 -78.79,20.04 -150.47,53.31 -215.02,99.84 -62.19,49.62 -113.38,110.12 -153.55,181.48 -40.17,70.58 -74.08,143.47 -102.52,217.88 -52.22,143.33 -88.85,281.08 -110.65,414.07 -9.76,61.78 -17.21,118.88 -21.55,172.03 -3.57,53.16 0.57,89.09 13.97,106.97 11.85,21.02 31.4,23.23 57.86,6.65 26.47,-15.79 54.35,-53.48 82.89,-112.26 27.78,-54.87 55.45,-126.16 82.26,-211.5 26.8,-86.13 56.76,-164.46 90.7,-234.22 63.96,-138.71 146.11,-243.95 246.46,-315.7 50.53,-39.39 101.1,-74.88 152.47,-105.68 51.37,-30.8 95.73,-57.66 133.88,-79.78 35.79,-22.89 59.9,-41.01 73.1,-54.38 13.98,-14.15 18.56,-29.03 14.55,-45.42zm-1037.48 641.14c24.82,-151.75 76.28,-290.39 155.96,-415.91 79.67,-126.32 177.46,-230.87 294.14,-312.88 115.9,-82 246.79,-141.45 390.33,-178.31 144.32,-36.09 293.54,-41.73 447.63,-16.16l550.67 90.23c151.75,24.82 289.6,77.85 414.35,158.32 123.99,80.46 228.52,178.25 312.88,293.36 84.35,115.1 143.78,245.21 178.31,390.33 34.53,145.12 40.16,292.75 15.35,444.51l-60.16 365.29 -91.78 554.59c-24.79,154.09 -77.04,292.73 -155.95,415.92 -78.92,123.18 -176.71,226.94 -293.37,310.52 -116.67,83.58 -246.78,143.01 -391.12,177.54 -143.54,35.3 -290.41,40.15 -442.15,15.34l-550.68 -90.23c-154.88,-25.57 -294.29,-77.81 -419.04,-156.71 -124.75,-79.68 -229.31,-177.47 -312.88,-294.14 -84.35,-116.67 -143.77,-245.99 -179.08,-387.98 -35.28,-141.99 -40.15,-289.63 -15.35,-443.73l91.77 -554.59 60.17 -365.29z"/>
  </g>
  <polygon class="fil3" points="11140.85,4885.07 11209.33,5016.76 11356.75,5034.95 11252.69,5140.85 11280.9,5286.56 11148.06,5220.34 11018.12,5292.21 11040.14,5145.42 10931.55,5044.09 11077.98,5019.58 "/>
  <path class="fil3" d="M6560.15 5772.59l79.52 207.64 -74.2 28.42c-10.86,-24.27 -21.05,-43.75 -30.47,-58.17 -9.47,-14.55 -19.46,-26.02 -30.07,-34.37 -12.59,-9.76 -26.15,-14.95 -40.43,-15.54 -14.28,-0.6 -38.77,5.76 -73.49,19.05l-58.65 22.46 53.21 138.93 17.69 -6.78c20.53,-7.87 32.94,-18.96 36.97,-33.21 4.05,-14.25 0.73,-35.48 -10.11,-63.8l-1.69 -4.4 57.19 -21.9 88.47 231.04 -57.18 21.91c-14.45,-35.02 -27.3,-56.36 -38.8,-63.93 -11.42,-7.74 -27.74,-7.56 -48.73,0.48l-18.37 7.04 43.71 114.14c8.05,21.02 15.2,32.56 21.51,34.76 6.35,2.33 17.23,0.48 32.54,-5.39l25.31 -9.69 27.46 71.72 -271.61 104.01 -27.46 -71.72 22.92 -8.78c15.09,-5.78 24.3,-11.62 27.57,-17.34 3.27,-5.73 1.26,-18.09 -5.86,-36.72l-1.45 -3.77 -105.87 -276.47c-7.52,-19.63 -14.41,-30.84 -20.57,-33.68 -6.16,-2.84 -17.35,-1.15 -33.45,5.02l-22.35 8.56 -27.47 -71.73 464.25 -177.78zm315.59 199.73l-96.57 -140.13 15.34 168.77 81.24 -28.65zm66.48 244.03l-25.54 -72.43 20.73 -7.31c17.52,-6.18 27.83,-10.95 30.96,-14.49 3.13,-3.53 3.69,-8.16 1.59,-14.14 -1.43,-4.06 -3.02,-7.79 -4.84,-11.15 -1.87,-3.48 -3.76,-6.67 -5.93,-9.9l-35.87 -49.08 -124.2 43.8 2.93 53.98c0.12,8.37 0.47,14.83 1.15,19.31 0.61,4.64 1.49,8.61 2.7,12.05 1.61,4.57 5.58,7.03 12.08,7.59 6.47,0.44 14.83,-1.07 25.13,-4.71l22.79 -8.04 25.55 72.43 -206.24 72.73 -25.54 -72.43 17.08 -6.03c11.68,-4.12 20.1,-11.66 25.09,-22.71 5,-11.05 7.17,-26.81 6.43,-47.56l-15.01 -429.38 166.83 -58.83 243.83 346.96c16.41,22.8 28.48,35.83 36.43,39.03 7.95,3.19 18.64,2.43 32.05,-2.3l24.16 -8.52 25.54 72.43 -279.88 98.7zm225.7 -288.65l67.34 -21.55c23.84,36.24 52.1,61.57 84.98,75.8 32.88,14.25 66.64,15.75 101.47,4.59 20.95,-6.69 36.24,-17.1 45.69,-31.04 9.45,-13.9 11.66,-28.91 6.53,-44.95 -7.93,-24.77 -42.02,-36.78 -102.35,-36.01 -19.62,0.48 -35.02,0.59 -46.35,0.26 -36.5,-0.48 -64.95,-1.7 -85.24,-3.7 -20.44,-2.09 -35.64,-5.3 -45.63,-9.45 -23.76,-9.66 -43.15,-22.41 -58.1,-38.43 -14.99,-16.14 -26.37,-36.13 -34.08,-60.27 -16.6,-51.84 -12.67,-99.37 11.86,-142.3 24.41,-42.9 65.13,-73.48 122.06,-91.7 28.92,-9.25 57,-14.84 84.11,-16.59 27.01,-1.7 54.38,0.14 82.06,5.71l4.28 -30.08 66.88 -21.4 57.41 179.41 -78.45 25.11c-19.34,-34.13 -42.5,-56.71 -69.56,-67.87 -26.87,-11.06 -58.1,-10.97 -93.62,0.39 -20.83,6.67 -36.26,17.42 -46.31,32.24 -10.06,14.81 -12.66,29.79 -7.78,45.06 7.4,23.1 38.79,32.3 94.13,27.47 13.6,-0.96 24.18,-1.8 31.81,-2.26 77.61,-4.6 135.21,2 172.85,19.95 37.62,17.95 63.91,50.29 78.94,97.26 16.68,52.1 12.17,99.39 -13.45,141.68 -25.73,42.34 -68.67,73.2 -128.94,92.49 -27.54,8.81 -55.26,13.87 -82.94,15.09 -27.75,1.38 -56.34,-1.07 -85.93,-7.03l-8.18 34.18 -63.88 20.45 -61.61 -192.51zm557.63 -445.72c-25.9,7.09 -43.03,22.27 -51.44,45.38 -8.37,23.25 -7.55,53.34 2.63,90.52l0.6 2.22 -69.6 19.05 -54.24 -198.07 496.35 -135.91 54.24 198.07 -68.9 18.87 -0.61 -2.22c-10.1,-36.91 -24.74,-63.23 -43.9,-78.93 -19.21,-15.84 -41.91,-20.11 -68.05,-12.96l-20.5 5.62 88.26 322.32c5.47,20.02 11.27,31.98 17.43,35.6 6.16,3.63 17.62,3.15 34.26,-1.4l39.36 -10.78 20.28 74.07 -310.04 84.89 -20.28 -74.07 36.55 -10.01c15.81,-4.34 25.55,-9.23 29.46,-14.78 3.87,-5.66 2.8,-19.2 -3.11,-40.79l-88.25 -322.32 -20.5 5.62zm1095.41 -343.05l45.43 217.66 -77.78 16.23c-6.86,-25.69 -13.81,-46.54 -20.82,-62.28 -7.04,-15.88 -15.07,-28.8 -24.22,-38.72 -10.87,-11.64 -23.43,-18.93 -37.43,-21.78 -14,-2.86 -39.19,-0.5 -75.58,7.1l-61.49 12.83 30.39 145.63 18.55 -3.87c21.52,-4.49 35.53,-13.47 41.8,-26.89 6.25,-13.43 6.36,-34.92 0.17,-64.6l-0.96 -4.61 59.94 -12.51 50.54 242.18 -59.94 12.51c-8.68,-36.86 -17.97,-59.99 -28.11,-69.29 -10.04,-9.46 -26.17,-11.88 -48.19,-7.3l-19.26 4.02 24.96 119.64c4.59,22.04 9.84,34.58 15.7,37.75 5.91,3.31 16.93,3.22 32.98,-0.13l26.53 -5.53 15.69 75.18 -284.71 59.41 -15.69 -75.18 24.03 -5.01c15.81,-3.29 25.84,-7.59 29.98,-12.73 4.15,-5.13 4.14,-17.66 0.06,-37.19l-0.82 -3.95 -60.48 -289.8c-4.3,-20.59 -9.31,-32.74 -14.94,-36.53 -5.63,-3.78 -16.95,-3.9 -33.83,-0.37l-23.42 4.89 -15.7 -75.2 486.64 -101.55zm355.62 0.91c-32.58,5.52 -53.6,25.48 -63.07,59.75 -9.46,34.27 -8.23,86.68 3.68,156.96 12.13,71.61 28.34,122.16 48.49,151.69 20.14,29.39 46.31,41.35 78.66,35.88 32.82,-5.57 53.85,-25.39 63.21,-59.64 9.38,-34.12 8.14,-86.53 -3.81,-157.08 -12.06,-71.21 -28.22,-121.5 -48.42,-151.3 -20.19,-29.64 -46.39,-41.75 -78.72,-36.27zm-245.99 249.97c-14.98,-88.48 -1.97,-162.19 39.09,-220.93 41.06,-58.76 105.45,-95.49 192.89,-110.3 87.08,-14.75 159.61,-1.21 217.61,40.76 58,41.97 94.57,107.27 109.56,195.75 14.99,88.48 1.92,161.9 -39.18,220.38 -41.11,58.49 -105.61,95.25 -193.29,110.1 -86.84,14.72 -159.24,1.16 -217.25,-40.82 -58,-41.97 -94.52,-106.99 -109.43,-194.93zm869.58 -339.58c-32.74,4.48 -54.39,23.76 -64.95,57.71 -10.55,33.96 -10.99,86.36 -1.33,157 9.84,71.96 24.42,123 43.62,153.16 19.18,30.01 44.97,42.81 77.46,38.37 32.98,-4.51 54.64,-23.65 65.09,-57.58 10.46,-33.8 10.9,-86.23 1.2,-157.12 -9.78,-71.55 -24.33,-122.34 -43.57,-152.76 -19.22,-30.28 -45.03,-43.21 -77.52,-38.77zm-253.85 241.99c-12.16,-88.92 3.21,-162.16 46.13,-219.58 42.91,-57.41 108.43,-92.07 196.3,-104.09 87.52,-11.97 159.57,3.89 216.2,47.69 56.64,43.8 91.1,110.24 103.26,199.15 12.16,88.91 -3.25,161.88 -46.2,219.02 -42.95,57.14 -108.59,91.83 -196.7,103.87 -87.27,11.94 -159.22,-3.93 -215.84,-47.74 -56.63,-43.8 -91.05,-109.96 -103.14,-198.33zm838.19 -386.69c97.23,-10.54 171.74,3.76 223.63,42.86 51.9,39.1 82.78,104.21 92.66,195.31 9.9,91.37 -6.3,161.7 -48.73,211.16 -42.42,49.47 -112.12,79.52 -209.1,90.02l-264.38 28.65 -8.28 -76.36 24.4 -2.65c16.06,-1.74 26.46,-5.03 31.07,-9.74 4.63,-4.7 5.85,-17.04 3.71,-36.85l-0.44 -4.03 -31.89 -294.33c-2.27,-20.89 -6.09,-33.62 -11.32,-37.94 -5.24,-4.32 -16.49,-5.53 -33.64,-3.68l-23.79 2.58 -8.28 -76.37 264.38 -28.65zm11.63 464.74l38.28 -4.15c35.15,-3.8 58.81,-21.14 70.97,-52.15 12.17,-31 14.46,-80.85 6.99,-149.71 -7.45,-68.73 -20.38,-117.07 -38.91,-144.87 -18.52,-27.68 -45.36,-39.69 -80.5,-35.88l-38.29 4.14 41.46 382.62zm1556.49 -295.69l-50.99 -162.37 -35.07 165.8 86.07 -3.44zm-8.37 252.79l-3.07 -76.75 21.96 -0.88c18.57,-0.74 29.82,-2.27 33.86,-4.73 4.04,-2.45 5.93,-6.7 5.68,-13.04 -0.17,-4.3 -0.59,-8.34 -1.34,-12.08 -0.77,-3.88 -1.63,-7.49 -2.76,-11.21l-19.81 -57.47 -131.59 5.25 -13.11 52.45c-2.35,8.04 -3.92,14.3 -4.59,18.78 -0.78,4.62 -1.11,8.68 -0.96,12.31 0.19,4.85 3.26,8.37 9.31,10.82 6.04,2.33 14.48,3.34 25.4,2.9l24.15 -0.96 3.07 76.75 -218.51 8.74 -3.07 -76.75 18.09 -0.73c12.39,-0.5 22.66,-5.22 30.68,-14.3 8.02,-9.09 14.74,-23.52 20.14,-43.55l112.19 -414.74 176.74 -7.07 130.78 403.4c8.97,26.62 16.66,42.63 23.32,48.02 6.66,5.4 17.09,7.81 31.29,7.25l25.61 -1.02 3.07 76.74 -296.54 11.86zm566.06 -551.5l0.71 76.81 -27.82 0.25c-16.17,0.15 -26.72,2.41 -31.66,6.63 -4.95,4.22 -7.38,16.23 -7.2,35.92l0.04 3.91 3.14 341.18 32.8 -0.31c30.38,-0.28 51.86,-2.22 64.22,-5.84 12.48,-3.75 22.26,-10.05 29.58,-19.15 9.13,-11.13 16.04,-26.28 20.6,-45.33 4.56,-19.04 7.49,-45.21 8.88,-78.78l75.79 -0.7 2.09 226.38 -460.66 4.25 -0.7 -76.81 24.53 -0.23c17.13,-0.15 28.16,-2.82 32.96,-7.85 4.82,-5.03 7.13,-18.12 6.93,-39.28l-2.73 -296.04c-0.19,-21.03 -2.74,-33.94 -7.52,-38.74 -4.77,-4.8 -15.86,-7.13 -33.23,-6.97l-24.53 0.23 -0.71 -76.81 294.47 -2.71zm959.51 17.82l-2.37 76.78 -24.17 -0.74c-16.87,-0.52 -27.87,1.43 -32.88,5.86 -4.99,4.43 -7.83,17.55 -8.49,39.1l-9.13 295.9c-0.68,21.82 1.47,35.24 6.3,39.97 4.83,4.73 15.57,7.35 32.2,7.87l24.17 0.74 -2.37 76.77 -268.12 -8.27 2.37 -76.77 18.1 0.55c16.39,0.51 27.26,-1.32 32.62,-5.46 5.36,-4.28 8.32,-17.53 9.01,-39.9l10.16 -329.85 -139.16 449.36 -114.51 -3.53 -104.81 -456.08 -10.15 329.04c-0.64,21.02 1.38,34.15 6.09,39.28 4.7,5.15 15.55,8.04 32.67,8.57l18.09 0.56 -2.37 76.77 -219.29 -6.76 2.37 -76.78 22.46 0.7c17,0.53 28.13,-1.69 33.14,-6.53 5.02,-4.83 7.85,-17.82 8.5,-38.84l9.12 -295.9c0.65,-21.01 -1.38,-34.15 -5.96,-39.14 -4.59,-4.99 -15.56,-7.76 -32.8,-8.3l-22.46 -0.69 2.36 -76.78 274.08 8.45 72.96 325.95 99.59 -320.63 282.69 8.72zm240.68 381.95c-3.3,41.78 0.21,71.52 10.64,89.25 10.41,17.71 29.5,27.6 57.48,29.8 33.18,2.63 57.57,-3.84 73.3,-19.22 15.71,-15.39 25.11,-41.95 28.09,-79.7l19.33 -245.03c1.67,-21.23 0.27,-34.44 -4.08,-39.52 -4.34,-5.08 -15.06,-8.36 -32.14,-9.7l-24.83 -1.96 6.04 -76.58 226 17.82 -6.04 76.58 -22.4 -1.77c-16.96,-1.34 -28.17,0.21 -33.39,4.67 -5.23,4.45 -8.61,16.48 -10.14,35.83l-20.57 260.88c-4.55,57.63 -26.78,100.08 -66.83,127.2 -40.02,26.99 -96.31,37.68 -168.98,31.95 -66.01,-5.2 -115.96,-24.01 -149.82,-56.56 -33.87,-32.53 -48.63,-75.75 -44.37,-129.75l20.91 -265.18c1.61,-20.55 0.21,-33.51 -4.36,-39 -4.56,-5.5 -15.51,-8.93 -32.69,-10.28l-24.71 -1.95 6.04 -76.58 293.57 23.16 -6.04 76.58 -26.88 -2.12c-17.44,-1.38 -28.78,0.3 -34.03,5.01 -5.24,4.72 -8.68,17.29 -10.29,37.84l-18.79 238.31zm911.32 -266.03l-24.04 200.69 -76.82 -9.2c-1.82,-26.68 -4.71,-47.65 -8.51,-62.9 -3.8,-15.25 -9.14,-27.83 -16.05,-37.61 -8.04,-11.41 -18.41,-19.98 -31.04,-25.84 -12.76,-5.86 -33.84,-10.56 -63.41,-14.1l-14.47 -1.73 -62.24 -7.46 -17.69 147.72 18.7 2.23c21.95,2.63 38.09,-1.41 48.32,-12.13 10.21,-10.72 17.17,-31.06 20.77,-61.16l0.56 -4.69 60.8 7.29 -29.41 245.65 -60.8 -7.28c3.54,-37.71 2.12,-62.59 -4.52,-74.65 -6.49,-12.18 -21.02,-19.61 -43.46,-22.31l-19.42 -2.32 -20.09 167.78 86.01 10.3c33.29,3.98 56.48,4.45 69.67,1.55 13.08,-2.91 23.77,-9.37 31.91,-19.25 9.02,-11.94 16.94,-26.88 23.49,-44.82 6.55,-17.93 12.22,-40.88 17.03,-68.66l79.61 9.53 -26.63 222.37 -512.42 -61.35 9.14 -76.26 24.36 2.92c16.05,1.92 26.92,1.05 32.48,-2.5 5.56,-3.53 9.56,-15.4 11.93,-35.21l0.48 -4.01 35.2 -293.96c2.5,-20.87 1.62,-34.01 -2.5,-39.38 -4.13,-5.38 -14.81,-9.1 -31.94,-11.15l-23.77 -2.85 9.14 -76.27 509.64 61.03zm68.96 430.29l44.59 -292.81c3.19,-20.91 2.74,-34.06 -1.22,-39.57 -3.95,-5.51 -14.51,-9.57 -31.68,-12.18l-24.26 -3.7 11.53 -75.68 332.92 50.7c58.85,8.96 101.01,26.7 126.59,53.22 25.57,26.53 35.02,62.17 28.18,107.07 -4.58,30.11 -17.34,54.19 -38.25,72 -21.04,17.93 -48.28,28.09 -81.97,30.73 32.24,9.41 52.74,23.99 61.7,43.47 8.94,19.62 8.47,61.4 -1.22,125.09 -2.94,19.32 -3.53,32.86 -1.77,40.62 1.87,7.92 6.1,12.38 12.95,13.42 6.49,0.98 11.97,-2.81 16.63,-11.51 4.51,-8.58 8.18,-22.19 10.99,-40.72 0.29,-1.86 0.6,-4.81 1.02,-9.11 0.38,-4.17 0.73,-7.25 1.06,-9.38l49 7.46c-0.36,2.4 -0.77,5.88 -1.28,10.85 -0.49,4.83 -0.9,8.31 -1.27,10.71 -7.6,49.95 -22.37,84.78 -44.41,104.46 -21.92,19.69 -53.53,26.34 -94.84,20.04 -43.83,-6.67 -74.24,-21.67 -91.22,-44.98 -16.97,-23.3 -22.16,-57.07 -15.43,-101.3l6.85 -44.9c5.45,-35.83 4.59,-59.27 -2.44,-70.29 -7.05,-11.02 -24.07,-18.66 -51.1,-22.78l-43.35 -6.6 -18.28 120.03c-3.19,20.92 -2.75,34.2 1.31,39.86 4.05,5.67 14.47,9.85 31.17,12.39l27.5 4.19 -11.56 75.93 -291.12 -44.33 11.56 -75.93 24.25 3.69c16.94,2.58 28.26,1.72 33.8,-2.49 5.56,-4.19 9.92,-16.74 13.11,-37.66zm187.9 -168.62l42.39 6.46c29.66,4.52 51.49,2.39 65.1,-6.3 13.73,-8.68 22.45,-25.49 26.19,-50.12 4.14,-27.19 1.52,-47.08 -7.99,-59.7 -9.5,-12.61 -28.25,-21.07 -56.35,-25.34l-47.68 -7.27 -21.66 142.28zm319.62 370.33l13.27 -75.65 334.51 -336.16 -64.13 -11.25c-38.89,-6.82 -67.32,-2.92 -85.57,11.8 -18.25,14.72 -33.15,45.48 -44.5,92.61l-82.55 -14.48 34.92 -199.09 441.54 77.45 -13.26 75.66 -332.85 336.45 65.58 11.5c41.52,7.29 72.07,2.51 91.53,-14.18 19.48,-16.83 35.31,-51.54 47.41,-104.28l85.43 14.99 -37.57 214.21 -453.76 -79.59zm863.53 -324.3c-32.47,-6.11 -59.1,5.33 -79.86,34.2 -20.76,28.87 -37.76,78.45 -50.95,148.51 -13.44,71.37 -15.76,124.41 -7.09,159.09 8.71,34.55 29.12,54.84 61.35,60.92 32.72,6.15 59.31,-5.16 79.96,-34.03 20.63,-28.76 37.62,-78.35 50.86,-148.67 13.36,-70.97 15.63,-123.74 7,-158.7 -8.65,-34.8 -29.04,-55.23 -61.28,-61.31zm-317.36 149.24c16.6,-88.19 54.35,-152.81 113.23,-193.69 58.87,-40.89 132,-53.04 219.16,-36.63 86.79,16.34 150.13,54.17 189.99,113.65 39.86,59.46 51.54,133.38 34.94,221.58 -16.6,88.2 -54.3,152.54 -113.13,193.15 -58.82,40.62 -132.07,52.75 -219.45,36.3 -86.56,-16.29 -149.78,-54.11 -189.65,-113.58 -39.86,-59.47 -51.59,-133.12 -35.08,-220.78zm610.25 186.45l69.39 13.56c3.44,43.24 16,79.06 37.94,107.37 21.95,28.31 50.83,45.89 86.72,52.9 21.58,4.22 39.99,2.46 54.99,-5.19 14.98,-7.64 24.15,-19.71 27.38,-36.25 4.98,-25.53 -19.09,-52.47 -72.34,-80.85 -17.43,-9.04 -30.98,-16.36 -40.75,-22.11 -31.75,-18.01 -56.1,-32.78 -72.91,-44.31 -16.9,-11.68 -28.68,-21.8 -35.43,-30.26 -16.17,-19.91 -27.02,-40.42 -32.4,-61.66 -5.36,-21.36 -5.7,-44.37 -0.83,-69.23 10.43,-53.43 36.76,-93.17 78.94,-118.99 42.05,-25.83 92.48,-33 151.14,-21.54 29.81,5.83 57.09,14.45 81.7,25.98 24.48,11.52 47.58,26.32 69.16,44.54l18.23 -24.31 68.92 13.46 -36.12 184.88 -80.84 -15.79c-0.51,-39.23 -9.93,-70.18 -28.26,-92.98 -18.23,-22.64 -45.63,-37.61 -82.24,-44.76 -21.46,-4.19 -40.17,-2.22 -56.11,5.93 -15.96,8.14 -25.45,20.02 -28.52,35.74 -4.65,23.81 18.43,46.99 69.25,69.42 12.38,5.7 22.05,10.06 28.95,13.34 70.23,33.36 117.53,66.88 141.86,100.75 24.32,33.85 31.78,74.85 22.34,123.26 -10.49,53.69 -37.22,92.95 -80.05,117.68 -42.95,24.7 -95.44,31.05 -157.56,18.93 -28.38,-5.55 -55.1,-14.48 -79.94,-26.74 -24.98,-12.16 -48.85,-28.08 -71.92,-47.56l-23.64 26 -65.81 -12.85 38.75 -198.39z"/>
  <path class="fil3" d="M9502.85 6291.13l35.14 -5.48c36.61,-5.49 61.61,-15.49 74.99,-29.98 13.39,-14.37 17.83,-35.96 13.47,-64.5 -4.08,-27.21 -14.3,-45.2 -30.4,-54.13 -16.09,-9.05 -42.24,-10.77 -78.32,-5.29l-38.24 5.9 23.35 153.48zm66.47 -248.23c75.12,-11.39 132.02,-7.72 170.81,11.05 38.79,18.89 62.06,53.91 69.93,105.2 7.88,51.42 -3.86,91.92 -35.21,121.36 -31.34,29.31 -84.59,49.72 -159.97,61.25l-102.72 15.6 17.58 115.51c3.09,20.73 7.75,33.23 13.85,37.38 6.08,4.13 18.49,4.87 36.93,2.05l30.56 -4.64 11.55 75.93 -323.11 49.22 -11.53 -75.93 26.92 -4.09c18.72,-2.94 30.41,-7.2 34.96,-13.02 4.55,-5.69 5.26,-19.04 2.17,-39.91l-44.7 -292.94c-3.09,-20.73 -7.76,-33.24 -13.58,-37.24 -5.95,-4.01 -18.49,-4.6 -37.47,-1.65l-26.93 4.08 -11.53 -75.66 351.5 -53.56z"/>
  <path id="1" class="fil3" d="M10172.45 6043.23c-36.4,3.99 -61.02,22.99 -74.14,56.89 -13.11,33.89 -15.69,86.43 -7.84,157.34 7.97,72.28 21.99,123.56 42.04,153.98 19.92,30.42 48.01,43.64 84.15,39.66 36.55,-4.12 61.43,-22.99 74.28,-56.74 12.98,-33.75 15.55,-86.3 7.7,-157.49 -7.96,-71.72 -21.98,-123.01 -42.04,-153.57 -20.04,-30.7 -48.14,-44.05 -84.15,-40.07zm-290.58 238.87c-9.77,-89.26 10.15,-162.19 60.06,-219.05 49.75,-56.89 123.5,-90.71 221.26,-101.52 97.21,-10.68 176.36,6.32 237.17,50.84 60.94,44.66 96.3,111.56 106.06,200.8 9.91,89.13 -10.15,162.06 -60.04,218.67 -49.76,56.6 -123.65,90.3 -221.67,101.1 -97.08,10.67 -175.96,-6.32 -236.77,-50.97 -60.94,-44.66 -96.3,-111.29 -106.07,-199.87z"/>
  <path id="2" class="fil3" d="M10592.97 6270.55l77.62 -6.7c16.42,40.57 40.53,71.17 72.32,92.07 31.8,20.9 67.91,29.55 108.19,26.19 24.4,-2.14 43.53,-9.01 57.28,-20.59 13.89,-11.58 20.1,-25.73 18.62,-42.44 -2.14,-25.88 -35.95,-44.89 -101.18,-56.91 -21.14,-3.79 -37.72,-7.03 -49.85,-9.6 -39.21,-8.37 -69.53,-15.66 -90.95,-22.01 -21.42,-6.34 -36.91,-12.68 -46.75,-19.01 -23.17,-14.3 -40.67,-31.03 -52.79,-49.9 -11.98,-18.87 -19.11,-40.98 -21.26,-66.17 -4.56,-54.17 11.77,-99.71 49.25,-136.35 37.35,-36.76 89.1,-57.89 155.14,-63.51 33.56,-2.95 65.09,-2.26 94.73,1.8 29.64,3.92 58.75,11.61 87.18,22.96l12.14 -28.29 77.22 -6.57 16.08 187.59 -90.57 7.64c-12.24,-37.61 -31.49,-64.84 -57.62,-81.42 -26.27,-16.72 -60.09,-23.35 -101.19,-19.87 -24.12,2.15 -43.53,9.28 -58.23,21.67 -14.55,12.4 -21.29,26.54 -19.82,42.58 2.01,24.26 33.39,40.03 94.3,47.21 14.95,1.89 26.55,3.51 34.77,4.59 84.88,12.04 145.38,30.8 181.34,56.42 35.84,25.63 55.89,62.97 60.18,111.88 4.56,54.57 -12.31,99.71 -50.87,135.67 -38.55,35.83 -92.73,56.82 -162.67,62.71 -31.94,2.81 -63.07,1.72 -93.38,-2.87 -30.19,-4.74 -60.5,-13.24 -90.82,-25.52l-17.39 31.66 -73.71 6.29 -17.28 -201.19z"/>
  <path id="3" class="fil3" d="M11291.38 5958.29c-29.79,1.54 -51.98,12.82 -66.68,33.73 -14.85,20.92 -21.13,50.53 -19.12,88.81l0.11 2.42 -80.08 4.27 -11.02 -204.91 570.25 -30.69 11.02 205.04 -79.27 4.26 -0.11 -2.43c-2.01,-38.01 -11.51,-66.64 -28.48,-86.04 -17.1,-19.39 -40.62,-28.2 -70.68,-26.67l-23.6 1.32 17.9 332.98c1.06,20.62 4.6,33.44 10.36,38.21 5.76,4.89 18.28,6.74 37.41,5.81l45.3 -2.5 4.14 76.84 -355.89 19.07 -4.15 -76.84 42.06 -2.24c18.2,-0.95 29.95,-3.69 35.5,-8.37 5.56,-4.68 7.68,-18.14 6.49,-40.37l-17.89 -332.98 -23.59 1.31z"/>
  <path id="4" class="fil3" d="M11836.98 6258.54l-7.31 -295.82c-0.58,-20.89 -3.48,-33.71 -8.98,-38.46 -5.38,-4.74 -17.63,-6.82 -36.89,-6.37l-27.23 0.67 -1.92 -76.55 373.58 -9.23c66.03,-1.69 115.59,8.24 148.62,29.83 32.92,21.45 50,54.82 51.13,99.96 0.8,30.46 -8.49,56.29 -28,77.62 -19.5,21.2 -47.34,36.02 -83.77,44.6 37.04,3.55 62.33,14.19 75.85,31.9 13.52,17.72 21,58.86 22.57,123.27 0.57,19.55 2.54,32.9 6.01,40.33 3.47,7.43 8.97,11.1 16.52,10.87 7.41,-0.11 12.69,-4.93 15.97,-14.21 3.42,-9.28 4.83,-23.29 4.25,-42.02 0.01,-1.9 -0.25,-4.99 -0.63,-9.18 -0.25,-4.17 -0.5,-7.41 -0.62,-9.43l54.99 -1.36c0.11,2.28 0.37,5.93 0.75,10.78 0.37,4.86 0.63,8.49 0.61,10.91 1.24,50.41 -8.23,87.41 -28.43,110.64 -20.33,23.34 -53.53,35.45 -99.89,36.7 -49.2,1.12 -85.4,-8.23 -108.35,-28.15 -23.08,-19.92 -35.18,-52.31 -36.18,-96.93l-1.13 -45.55c-0.9,-36.26 -6.31,-59.19 -16.23,-68.8 -9.79,-9.48 -29.85,-14.03 -60.18,-13.24l-48.64 1.25 3.05 121.43c0.44,21.15 3.48,34.1 8.97,38.98 5.64,4.88 17.75,7.1 36.49,6.65l30.86 -0.78 1.91 76.81 -326.67 8.12 -1.92 -76.81 27.36 -0.68c18.86,-0.45 31.01,-3.22 36.29,-8.45 5.28,-5.09 7.64,-18.29 7.2,-39.31zm173.05 -199.54l47.44 -1.11c33.42,-0.93 56.76,-6.73 70.16,-17.72 13.25,-10.98 19.55,-28.88 18.98,-53.8 -0.67,-27.23 -7.46,-46.27 -20.21,-56.97 -12.74,-10.71 -34.96,-15.66 -66.49,-14.88l-53.5 1.36 3.62 143.13z"/>
  <path id="5" class="fil3" d="M13020.86 5822.97l-1.97 202.13 -85.84 -0.85c-5.23,-26.25 -10.99,-46.84 -16.97,-61.64 -6,-14.66 -13.45,-26.62 -22.39,-35.61 -10.15,-10.33 -22.72,-17.83 -37.42,-22.21 -14.7,-4.53 -38.56,-6.99 -71.44,-7.25l-16.31 -0.2 -69.54 -0.65 -1.39 147.96 20.88 0.19c24.53,0.3 41.75,-5.43 51.81,-17.2 9.93,-11.77 15.1,-32.81 15.37,-63l0.11 -4.85 67.91 0.66 -2.46 247.42 -67.91 -0.67c-0.7,-37.86 -5.39,-62.37 -14.06,-73.79 -8.67,-11.28 -25.54,-17.13 -50.6,-17.44l-21.7 -0.17 -1.72 169.8 95.96 0.94c37.19,0.39 62.92,-1.61 77.05,-5.98 14.12,-4.37 25.14,-11.83 32.92,-22.65 8.57,-12.83 15.37,-28.5 20.42,-47.11 5.04,-18.49 8.58,-41.81 10.34,-70.12l88.95 0.97 -2.16 223.97 -572.45 -5.67 0.74 -76.81 27.23 0.3c17.92,0.19 29.77,-1.88 35.55,-6.08 5.64,-4.2 8.56,-16.47 8.74,-36.69l0.11 -3.91 2.93 -296.2c0.18,-20.76 -2.44,-33.68 -7.57,-38.5 -5.27,-4.83 -17.42,-7.34 -36.69,-7.52l-26.55 -0.3 0.75 -76.81 569.35 5.55z"/>
  <path id="6" class="fil3" d="M13125.61 6170.81l78.41 4.51c10.41,42.6 29.74,76.6 58.23,101.87 28.38,25.27 62.7,39.09 103.13,41.36 24.38,1.54 44.19,-2.59 59.44,-12.12 15.38,-9.54 23.5,-22.72 24.49,-39.56 1.54,-26.01 -29.13,-49.67 -91.74,-71.1 -20.33,-6.66 -36.34,-12.22 -47.92,-16.56 -37.7,-13.84 -66.78,-25.36 -87.11,-34.85 -20.32,-9.35 -34.86,-17.73 -43.59,-25.44 -20.85,-17.56 -35.9,-36.46 -45.15,-56.96 -9.24,-20.38 -13.1,-43.29 -11.69,-68.49 3.24,-54.3 25.84,-97.1 68.1,-127.99 42.25,-31.03 96.59,-44.63 162.74,-40.83 33.55,1.96 64.79,7.15 93.48,15.45 28.82,8.16 56.42,19.95 82.93,35.23l16.23 -26.37 77.88 4.5 -10.97 188.36 -91.36 -5.35c-6.64,-38.95 -21.79,-68.5 -45.33,-88.64 -23.53,-20.27 -55.84,-31.68 -97.07,-34.05 -24.11,-1.41 -44.35,2.99 -60.53,13.05 -16.2,10.2 -24.85,23.25 -25.83,39.29 -1.41,24.25 27.51,44.26 86.5,60.04 14.54,4.08 25.73,7.21 33.8,9.51 82.41,24.06 139.61,51.28 171.61,81.81 31.86,30.41 46.46,70.19 43.63,119.37 -3.23,54.56 -26.38,96.95 -69.7,126.9 -43.2,30.07 -99.82,43.02 -170.02,38.94 -31.93,-1.84 -62.64,-7.31 -91.85,-16.27 -29.23,-8.96 -58.03,-21.7 -86.3,-38.06l-21.89 28.78 -74.38 -4.35 11.81 -201.97z"/>
  <polygon class="fil3" points="8749.93,6214.9 8839.31,6333.4 8987.71,6326.87 8902.67,6448.56 8954.68,6587.57 8812.69,6544.32 8696.48,6636.76 8693.83,6488.36 8569.92,6406.46 8710.25,6357.99 "/>
  <polygon class="fil3" points="14047.25,5954.01 14096.95,6093.87 14240.47,6132.17 14122.83,6222.75 14130.72,6370.96 14008.26,6287.09 13869.67,6340.4 13911.67,6198.04 13818.05,6082.73 13966.46,6078.59 "/>
  <path class="fil3" d="M4790.86 2323.61c-15.36,-65.25 15.36,-227 46.07,-222.63 34.55,3 3.19,192.5 -15.36,268.7 -8.61,35.39 -19.19,38.39 -57.57,34.55 -15.36,-3.84 -72.94,-88.29 -84.45,-103.65 -57.57,-72.93 -103.64,-122.83 -165.05,-191.92 -34.55,-38.38 -80.62,-61.41 -49.9,-103.64 19.19,-26.87 92.13,-42.23 122.83,-53.74 84.45,-26.86 406.89,-172.73 529.72,-211.12 -147.31,-106 -660.23,-356.97 -798.42,-433.75 19.19,-34.55 53.74,-69.09 80.62,-95.96 188.08,80.61 955.79,491.33 994.18,560.42 -42.23,38.38 -656.39,230.31 -786.9,249.5 69.09,92.12 149.7,168.89 184.24,284.04l0 19.19z"/>
  <g id="_1648999361856">
   <path class="fil3" d="M3712.91 4220.11c43.51,-10.22 92.11,-10.22 135.63,-7.68 58.85,2.57 214.96,7.68 243.1,71.67 0,38.39 -184.24,25.59 -261.01,23.03 -46.07,-2.57 -217.52,-2.57 -253.34,-10.25 30.71,-110.03 109.23,-202.43 161.21,-304.52 281.49,-552.74 -163.77,-893.1 -278.94,-939.16 97.26,-51.17 253.3,-21.36 312.22,61.41 296.84,417.12 150.97,803.54 12.79,1000.58 -20.46,25.59 -71.65,104.91 -71.65,104.91z"/>
   <path class="fil3" d="M2754.17 3248.87c-537.4,652.23 -1212.32,1147.71 -1289.08,1209.14 -65.26,53.74 -88.29,80.61 -118.99,-19.19 -23.03,-76.77 -126.67,-503.16 -82.88,-522.04 93.75,-40.39 171.16,337.79 178.84,418.4 307.08,-234.15 744.68,-598.81 1132.36,-1086.3l179.76 0z"/>
   <path class="fil4" d="M1399.72 4504.66c-21.4,6.42 -36.3,-9.53 -53.63,-65.85 -20.59,-68.65 -105.53,-416.54 -92.04,-503 116.8,165.46 131.32,380.45 145.77,568.26l-0.11 0.59z"/>
   <path class="fil5" d="M4809.55 2199.89c5.83,-27.23 6.82,-59.33 -21.39,-75.87 -27.23,-14.58 -28.22,42.81 -28.22,61.29 -5.82,-28.23 -37.94,-65.16 -58.36,-29.17 -13.63,23.34 -0.95,55.44 6.8,78.78 8.77,28.22 18.5,56.41 35.99,79.77 23.37,31.12 58.38,18.48 69.06,-17.52 1.95,-7.76 2.93,-16.54 4.88,-24.32l-8.77 -72.95z"/>
   <path class="fil3" d="M197.04 2359.16c-3.84,-84.44 146.17,-763.81 164.76,-767.16 116.74,-21.01 125.69,-133.6 106.49,-233.4 -23.03,-111.33 62.36,-146.01 133.07,-225.2 63.97,-71.64 -87,-92.12 -148.43,-33.25 -31.6,30.27 -30.71,89.55 -53.73,124.1 -26.87,46.06 -42.23,53.73 -84.45,80.61 -76.77,49.9 -98.18,206.24 -74.21,284.04 10.23,33.28 -229.03,817.61 -240.55,890.54 547.63,14.07 1293.58,-249.5 1297.42,-291.72 0,-19.19 -26.87,-61.42 -34.55,-84.45 -11.52,-34.55 -39.66,-23.03 -55.01,-53.73 0,0 -513.09,248.22 -1010.82,309.63z"/>
   <path class="fil6" d="M274.89 1599.15c61.41,-2.57 70.58,-130.51 57.79,-174.02 56.28,2.56 63.96,-74.21 20.46,-97.24 66.53,2.56 94.69,-87.01 35.82,-117.71 -51.17,-25.59 -110.03,-20.47 -161.21,2.56 -30.71,10.24 -51.17,23.02 -56.29,58.85 -5.13,38.38 17.9,46.06 30.71,76.77 20.46,43.52 -2.57,110.05 2.55,158.67 5.13,30.7 9.98,74.2 35.56,92.12l34.61 0z"/>
   <path class="fil7" d="M4082.21 739.1c136.35,567.6 -2738.72,1258.3 -2875.08,690.69 -136.34,-567.51 396.72,-1182.28 1190.71,-1373.03 793.89,-190.72 1548.04,114.83 1684.38,682.34z"/>
   <path class="fil7" d="M1793.06 2828.61c-137.05,-17.77 -236.23,-56.09 -278.59,-119.52 98.07,408.25 448.97,581.84 963.06,569.03 -350.35,-19.85 -570.92,-166.78 -684.47,-449.51z"/>
   <path class="fil8" d="M1607.84 1371.36c-128.06,-533.03 334.32,-1107.6 1048.73,-1333.55 -47.91,8 -96.1,17.66 -144.48,29.28 -793.95,190.73 -1326.96,805.45 -1190.6,1373.07 72.71,302.65 924.17,247.47 1682.54,43.99 -672.25,142.79 -1332.55,152.1 -1396.19,-112.79z"/>
   <path class="fil9" d="M4118.61 1444.12l-0.09 0.03c-101.99,24.49 -219.97,45.33 -344.86,67.42 -72.85,12.86 -149.91,26.47 -230.45,41.98 -242.51,46.57 -348.43,138.02 -471.35,245.03 -116.63,101.46 -248.85,216.48 -497.25,287.66 -11.9,3.4 -23.37,6.46 -34.67,9.18 -253.59,60.92 -384.83,-43.55 -480.56,-119.86 -78.57,-62.63 -117.99,-93.99 -227.26,-67.74 -48.27,11.59 -105.7,34.48 -170.81,68.02 -93.9,48.45 -184.72,83.38 -269.97,103.87 -8.59,2.06 -17.05,3.69 -25.63,5.4 2.04,10.79 4.02,21.5 6.6,32.23 136.35,567.56 808.21,530.58 1602.2,339.84 793.95,-190.74 1404.05,-484.56 1272.89,-1030.53 -1.38,-5.75 -3.12,-11.35 -4.67,-17.01 -40.95,13.3 -82.74,24.57 -124.09,34.5z"/>
   <path class="fil8" d="M4216.01 1340.68c25.64,473.85 -539.15,795.54 -1276.09,972.58 -746.97,179.44 -1399.12,167 -1585.68,-301.16l-5.77 1.31c2.02,10.7 4,21.37 6.6,32.18 136.35,567.54 808.22,530.61 1602.2,339.87 793.94,-190.74 1404.04,-484.6 1272.88,-1030.56 -1.38,-5.75 -3.12,-11.35 -4.67,-16.97l-9.47 2.75z"/>
   <path class="fil8" d="M1654.82 718.57c5.94,24.71 -9.28,49.63 -34.04,55.58 -24.83,5.97 -49.7,-9.31 -55.64,-34.03l-8.61 -35.85c-5.96,-24.82 9.28,-49.64 34.11,-55.6 24.76,-5.95 49.62,9.23 55.59,34.05l8.6 35.85z"/>
   <path class="fil8" d="M1458.7 1189.28c-16.75,19.19 -45.92,21.16 -65.07,4.45 -19.21,-16.79 -21.2,-45.87 -4.51,-65.06l24.26 -27.83c16.74,-19.19 45.93,-21.17 65.08,-4.45 19.2,16.74 21.17,45.91 4.44,65.01l-24.2 27.87z"/>
   <path class="fil7" d="M4109.33 2319.54l-67.71 313.2 -519.77 -69.24c-414.06,134.3 -903.86,237.48 -1298.77,267.81 186.88,282.65 447.39,403.6 935.79,347.02 866.2,-210.31 1364.5,-602.85 1230.67,-1159.94 8.15,96.41 -100.92,200.47 -280.21,301.15z"/>
   <path class="fil2" d="M3152.05 2458.34c0,0 565.35,-15.68 964.44,-434.11l-118.14 546.93 -846.3 -112.82z"/>
   <path class="fil10" d="M4124.9 755.85c42.39,343.5 -709.41,650.65 -1380.49,811.87 -666.27,160.06 -1469.13,228.27 -1596.32,-89.04 -376.51,409.78 -105.32,721.75 450.38,435.2 575.96,-297.02 465.3,236.19 936.86,101.07 471.56,-135.19 457.49,-435.09 979.87,-535.41 522.41,-100.34 896.45,-122.93 963.27,-371.16 59.33,-220.28 -226.71,-319.81 -353.56,-352.53z"/>
   <path class="fil11" d="M2745.38 398.49c-46.52,3.75 -83.38,17.59 -82.3,30.85 1.07,13.27 39.67,20.96 86.19,17.17 46.51,-3.76 83.34,-17.6 82.27,-30.86 -1.08,-13.27 -39.65,-20.95 -86.16,-17.16zm857.05 114.36c-54.39,-18.64 -103.25,-19.93 -109.07,-2.9 -5.83,17.03 33.55,45.96 87.96,64.57 54.42,18.64 103.25,19.93 109.08,2.9 5.83,-17.06 -33.56,-45.95 -87.97,-64.57zm-1733.17 163.79c-33.53,13.97 -55.04,38.88 -48.06,55.65 6.99,16.76 39.84,19.01 73.36,5.05 33.53,-14 68.85,-43.35 61.86,-60.11 -7.01,-16.77 -53.64,-14.59 -87.16,-0.59zm1302.59 -167.2c-5.75,14.98 34.67,50.14 73.46,65.08 38.78,14.94 74.88,14.91 80.65,-0.05 5.75,-14.96 -17.24,-45.32 -56.03,-60.25 -38.78,-14.94 -92.31,-19.75 -98.09,-4.78zm-769.47 -6.55c5.72,14.91 -54.55,57.66 -109.72,78.92 -55.17,21.22 -104.54,26.34 -110.26,11.43 -5.75,-14.9 30.02,-50.09 85.17,-71.33 55.17,-21.22 129.06,-33.93 134.81,-19.01z"/>
  </g>
  <g id="_1649005704608">
   <path class="fil3" d="M3712.91 4220.11c43.51,-10.22 92.11,-10.22 135.63,-7.68 58.85,2.57 214.96,7.68 243.1,71.67 0,38.39 -184.24,25.59 -261.01,23.03 -46.07,-2.57 -217.52,-2.57 -253.34,-10.25 30.71,-110.03 109.23,-202.43 161.21,-304.52 281.49,-552.74 -163.77,-893.1 -278.94,-939.16 97.26,-51.17 253.3,-21.36 312.22,61.41 296.84,417.12 150.97,803.54 12.79,1000.58 -20.46,25.59 -71.65,104.91 -71.65,104.91z"/>
   <path class="fil3" d="M2754.17 3248.87c-537.4,652.23 -1212.32,1147.71 -1289.08,1209.14 -65.26,53.74 -88.29,80.61 -118.99,-19.19 -23.03,-76.77 -126.67,-503.16 -82.88,-522.04 93.75,-40.39 171.16,337.79 178.84,418.4 307.08,-234.15 744.68,-598.81 1132.36,-1086.3l179.76 0z"/>
   <path class="fil4" d="M1399.72 4504.66c-21.4,6.42 -36.3,-9.53 -53.63,-65.85 -20.59,-68.65 -105.53,-416.54 -92.04,-503 116.8,165.46 131.32,380.45 145.77,568.26l-0.11 0.59z"/>
   <path class="fil5" d="M4809.55 2199.89c5.83,-27.23 6.82,-59.33 -21.39,-75.87 -27.23,-14.58 -28.22,42.81 -28.22,61.29 -5.82,-28.23 -37.94,-65.16 -58.36,-29.17 -13.63,23.34 -0.95,55.44 6.8,78.78 8.77,28.22 18.5,56.41 35.99,79.77 23.37,31.12 58.38,18.48 69.06,-17.52 1.95,-7.76 2.93,-16.54 4.88,-24.32l-8.77 -72.95z"/>
   <path class="fil3" d="M197.04 2359.16c-3.84,-84.44 146.17,-763.81 164.76,-767.16 116.74,-21.01 125.69,-133.6 106.49,-233.4 -23.03,-111.33 62.36,-146.01 133.07,-225.2 63.97,-71.64 -87,-92.12 -148.43,-33.25 -31.6,30.27 -30.71,89.55 -53.73,124.1 -26.87,46.06 -42.23,53.73 -84.45,80.61 -76.77,49.9 -98.18,206.24 -74.21,284.04 10.23,33.28 -229.03,817.61 -240.55,890.54 547.63,14.07 1293.58,-249.5 1297.42,-291.72 0,-19.19 -26.87,-61.42 -34.55,-84.45 -11.52,-34.55 -39.66,-23.03 -55.01,-53.73 0,0 -513.09,248.22 -1010.82,309.63z"/>
   <path class="fil6" d="M274.89 1599.15c61.41,-2.57 70.58,-130.51 57.79,-174.02 56.28,2.56 63.96,-74.21 20.46,-97.24 66.53,2.56 94.69,-87.01 35.82,-117.71 -51.17,-25.59 -110.03,-20.47 -161.21,2.56 -30.71,10.24 -51.17,23.02 -56.29,58.85 -5.13,38.38 17.9,46.06 30.71,76.77 20.46,43.52 -2.57,110.05 2.55,158.67 5.13,30.7 9.98,74.2 35.56,92.12l34.61 0z"/>
   <path class="fil7" d="M4082.21 739.1c136.35,567.6 -2738.72,1258.3 -2875.08,690.69 -136.34,-567.51 396.72,-1182.28 1190.71,-1373.03 793.89,-190.72 1548.04,114.83 1684.38,682.34z"/>
   <path class="fil7" d="M1793.06 2828.61c-137.05,-17.77 -236.23,-56.09 -278.59,-119.52 98.07,408.25 448.97,581.84 963.06,569.03 -350.35,-19.85 -570.92,-166.78 -684.47,-449.51z"/>
   <path class="fil8" d="M1607.84 1371.36c-128.06,-533.03 334.32,-1107.6 1048.73,-1333.55 -47.91,8 -96.1,17.66 -144.48,29.28 -793.95,190.73 -1326.96,805.45 -1190.6,1373.07 72.71,302.65 924.17,247.47 1682.54,43.99 -672.25,142.79 -1332.55,152.1 -1396.19,-112.79z"/>
   <path class="fil9" d="M4118.61 1444.12l-0.09 0.03c-101.99,24.49 -219.97,45.33 -344.86,67.42 -72.85,12.86 -149.91,26.47 -230.45,41.98 -242.51,46.57 -348.43,138.02 -471.35,245.03 -116.63,101.46 -248.85,216.48 -497.25,287.66 -11.9,3.4 -23.37,6.46 -34.67,9.18 -253.59,60.92 -384.83,-43.55 -480.56,-119.86 -78.57,-62.63 -117.99,-93.99 -227.26,-67.74 -48.27,11.59 -105.7,34.48 -170.81,68.02 -93.9,48.45 -184.72,83.38 -269.97,103.87 -8.59,2.06 -17.05,3.69 -25.63,5.4 2.04,10.79 4.02,21.5 6.6,32.23 136.35,567.56 808.21,530.58 1602.2,339.84 793.95,-190.74 1404.05,-484.56 1272.89,-1030.53 -1.38,-5.75 -3.12,-11.35 -4.67,-17.01 -40.95,13.3 -82.74,24.57 -124.09,34.5z"/>
   <path class="fil8" d="M4216.01 1340.68c25.64,473.85 -539.15,795.54 -1276.09,972.58 -746.97,179.44 -1399.12,167 -1585.68,-301.16l-5.77 1.31c2.02,10.7 4,21.37 6.6,32.18 136.35,567.54 808.22,530.61 1602.2,339.87 793.94,-190.74 1404.04,-484.6 1272.88,-1030.56 -1.38,-5.75 -3.12,-11.35 -4.67,-16.97l-9.47 2.75z"/>
   <path class="fil8" d="M1654.82 718.57c5.94,24.71 -9.28,49.63 -34.04,55.58 -24.83,5.97 -49.7,-9.31 -55.64,-34.03l-8.61 -35.85c-5.96,-24.82 9.28,-49.64 34.11,-55.6 24.76,-5.95 49.62,9.23 55.59,34.05l8.6 35.85z"/>
   <path class="fil8" d="M1458.7 1189.28c-16.75,19.19 -45.92,21.16 -65.07,4.45 -19.21,-16.79 -21.2,-45.87 -4.51,-65.06l24.26 -27.83c16.74,-19.19 45.93,-21.17 65.08,-4.45 19.2,16.74 21.17,45.91 4.44,65.01l-24.2 27.87z"/>
   <path class="fil7" d="M4109.33 2319.54l-67.71 313.2 -519.77 -69.24c-414.06,134.3 -903.86,237.48 -1298.77,267.81 186.88,282.65 447.39,403.6 935.79,347.02 866.2,-210.31 1364.5,-602.85 1230.67,-1159.94 8.15,96.41 -100.92,200.47 -280.21,301.15z"/>
   <path class="fil2" d="M3152.05 2458.34c0,0 565.35,-15.68 964.44,-434.11l-118.14 546.93 -846.3 -112.82z"/>
   <path class="fil10" d="M4124.9 755.85c42.39,343.5 -709.41,650.65 -1380.49,811.87 -666.27,160.06 -1469.13,228.27 -1596.32,-89.04 -376.51,409.78 -105.32,721.75 450.38,435.2 575.96,-297.02 465.3,236.19 936.86,101.07 471.56,-135.19 457.49,-435.09 979.87,-535.41 522.41,-100.34 896.45,-122.93 963.27,-371.16 59.33,-220.28 -226.71,-319.81 -353.56,-352.53z"/>
   <path class="fil11" d="M2745.38 398.49c-46.52,3.75 -83.38,17.59 -82.3,30.85 1.07,13.27 39.67,20.96 86.19,17.17 46.51,-3.76 83.34,-17.6 82.27,-30.86 -1.08,-13.27 -39.65,-20.95 -86.16,-17.16zm857.05 114.36c-54.39,-18.64 -103.25,-19.93 -109.07,-2.9 -5.83,17.03 33.55,45.96 87.96,64.57 54.42,18.64 103.25,19.93 109.08,2.9 5.83,-17.06 -33.56,-45.95 -87.97,-64.57zm-1733.17 163.79c-33.53,13.97 -55.04,38.88 -48.06,55.65 6.99,16.76 39.84,19.01 73.36,5.05 33.53,-14 68.85,-43.35 61.86,-60.11 -7.01,-16.77 -53.64,-14.59 -87.16,-0.59zm1302.59 -167.2c-5.75,14.98 34.67,50.14 73.46,65.08 38.78,14.94 74.88,14.91 80.65,-0.05 5.75,-14.96 -17.24,-45.32 -56.03,-60.25 -38.78,-14.94 -92.31,-19.75 -98.09,-4.78zm-769.47 -6.55c5.72,14.91 -54.55,57.66 -109.72,78.92 -55.17,21.22 -104.54,26.34 -110.26,11.43 -5.75,-14.9 30.02,-50.09 85.17,-71.33 55.17,-21.22 129.06,-33.93 134.81,-19.01z"/>
  </g>
 </g>
</svg>
